<svg width="128" height="128" viewBox="0 0 128 128" fill="none" xmlns="http://www.w3.org/2000/svg">
  <!-- Background circle with gradient -->
  <defs>
    <linearGradient id="bgGradient" x1="0%" y1="0%" x2="100%" y2="100%">
      <stop offset="0%" style="stop-color:#4A90E2;stop-opacity:1" />
      <stop offset="100%" style="stop-color:#357ABD;stop-opacity:1" />
    </linearGradient>
    <linearGradient id="iconGradient" x1="0%" y1="0%" x2="100%" y2="100%">
      <stop offset="0%" style="stop-color:#FFFFFF;stop-opacity:1" />
      <stop offset="100%" style="stop-color:#F0F8FF;stop-opacity:1" />
    </linearGradient>
  </defs>
  
  <!-- Background -->
  <circle cx="64" cy="64" r="60" fill="url(#bgGradient)" stroke="#2C5282" stroke-width="2"/>
  
  <!-- Document stack representing specs -->
  <rect x="28" y="32" width="48" height="56" rx="4" fill="url(#iconGradient)" stroke="#2C5282" stroke-width="1.5"/>
  <rect x="32" y="28" width="48" height="56" rx="4" fill="url(#iconGradient)" stroke="#2C5282" stroke-width="1.5"/>
  <rect x="36" y="24" width="48" height="56" rx="4" fill="url(#iconGradient)" stroke="#2C5282" stroke-width="1.5"/>
  
  <!-- Workflow arrows -->
  <path d="M44 40 L52 40 M48 36 L52 40 L48 44" stroke="#4A90E2" stroke-width="2" fill="none" stroke-linecap="round" stroke-linejoin="round"/>
  <path d="M44 52 L52 52 M48 48 L52 52 L48 56" stroke="#4A90E2" stroke-width="2" fill="none" stroke-linecap="round" stroke-linejoin="round"/>
  <path d="M44 64 L52 64 M48 60 L52 64 L48 68" stroke="#4A90E2" stroke-width="2" fill="none" stroke-linecap="round" stroke-linejoin="round"/>
  
  <!-- Phase indicators (dots) -->
  <circle cx="60" cy="40" r="3" fill="#4A90E2"/>
  <circle cx="60" cy="52" r="3" fill="#4A90E2"/>
  <circle cx="60" cy="64" r="3" fill="#4A90E2"/>
  
  <!-- Checkmark for completion -->
  <path d="M92 48 L98 54 L108 44" stroke="#22C55E" stroke-width="3" fill="none" stroke-linecap="round" stroke-linejoin="round"/>
  
  <!-- Subtle shadow -->
  <ellipse cx="64" cy="120" rx="50" ry="6" fill="#000000" opacity="0.1"/>
</svg>